<?xml version="1.0" encoding="UTF-8" standalone="no"?>
<!DOCTYPE svg PUBLIC "-//W3C//DTD SVG 1.1//EN" "http://www.w3.org/Graphics/SVG/1.1/DTD/svg11.dtd">
<svg width="100%" height="100%" viewBox="0 0 1000 1000" version="1.1" xmlns="http://www.w3.org/2000/svg" xmlns:xlink="http://www.w3.org/1999/xlink" xml:space="preserve" xmlns:serif="http://www.serif.com/" style="fill-rule:evenodd;clip-rule:evenodd;stroke-linejoin:round;stroke-miterlimit:2;">
    <path d="M1000,224.192C1000,100.374 899.626,0 775.808,0L224.192,0C100.374,0 0,100.374 0,224.192L0,775.808C0,899.626 100.374,1000 224.192,1000L775.808,1000C899.626,1000 1000,899.626 1000,775.808L1000,224.192ZM849.633,269.395L849.633,337.269C829.326,324.246 808.963,314.423 788.546,307.801C768.129,301.18 747.546,297.869 726.798,297.869C695.234,297.869 670.291,305.208 651.971,319.886C633.651,334.565 624.49,354.375 624.49,379.317C624.49,401.169 630.505,417.834 642.535,429.312C654.565,440.79 677.024,450.391 709.912,458.117L745.008,466.063C791.36,476.879 825.132,493.875 846.322,517.051C867.511,540.228 878.106,571.792 878.106,611.743C878.106,658.758 863.538,694.627 834.402,719.348C805.266,744.07 762.887,756.43 707.263,756.43C684.087,756.43 660.8,753.947 637.403,748.981C614.006,744.014 590.498,736.565 566.88,726.632L566.88,655.447C592.264,671.561 616.268,683.369 638.893,690.874C661.517,698.379 684.308,702.131 707.263,702.131C741.035,702.131 767.301,694.571 786.063,679.452C804.825,664.332 814.206,643.197 814.206,616.048C814.206,591.326 807.749,572.454 794.837,559.431C781.924,546.408 759.465,536.365 727.46,529.302L691.702,521.024C645.791,510.65 612.461,494.978 591.712,474.009C570.964,453.04 560.59,424.897 560.59,389.581C560.59,345.435 575.434,310.064 605.122,283.466C634.809,256.869 674.264,243.57 723.487,243.57C742.469,243.57 762.445,245.722 783.414,250.026C804.383,254.33 826.456,260.786 849.633,269.395ZM121.894,252.509L499.007,252.509L499.007,308.795L344.387,308.795L344.387,746.829L277.175,746.829L277.175,308.795L121.894,308.795L121.894,252.509Z" style="fill:white;"/>
</svg>
